# xmcd
#
# Track frame offsets:
#	150
#	27791
#	43370
#	64531
#	88262
#	116769
#	139384
#	177546
#	190680
#	228317
#	244844
#	255821
#	273420
#	288598
#	308298
#
# Disc length: 4748 seconds
#
# Revision: 1
# Processed by: cddbd v1.5.2PL0 Copyright (c) Steve Scherf et al.
# Submitted via: EZCDAudioConverter 8.5.0.1
#
DISCID=d3128a0f
DTITLE=V/A - Switched-On Eugene
DYEAR=2018
DGENRE=
TTITLE0=David Stout - The Seven Rays
TTITLE1=Phyllyp Vernacular - The Clinging
TTITLE2=Peter Thomas - Shimmer
TTITLE3=Peter Kardas - Other Playgrounds
TTITLE4=Kim Carter - Energy
TTITLE5=Nathan Griffith - Great Moves
TTITLE6=Joel Horwitz - Finale From "A Walk Down Serenity Lane"
TTITLE7=Michael Chocholak - Skomorokhi
TTITLE8=Derryl Parsons - Floating Landscape (including Chase Scene)
TTITLE9=Scott Blair - Dance Pacific
TTITLE10=Heather Perkins - Burning Through
TTITLE11=Carl Juarez - Self Regulation (ll)
TTITLE12=Talvé - The Ride
TTITLE13=Suse Millemann - Patterns
TTITLE14=Peter Nothnagle - New Snow
EXTD=
EXTT0=
EXTT1=
EXTT2=
EXTT3=
EXTT4=
EXTT5=
EXTT6=
EXTT7=
EXTT8=
EXTT9=
EXTT10=
EXTT11=
EXTT12=
EXTT13=
EXTT14=
PLAYORDER=
